P2
7 7
180
120 100 080 060 040 020 000
113 020 030 040 050 060 007
107 030 040 050 060 070 013
100 040 050 060 070 080 020
093 050 060 070 080 090 027
087 060 070 080 090 100 033
080 073 067 060 053 047 040
